# 3ds Max Wavefront OBJ Exporter v0.97b - (c)2007 guruware
# File Created: 02.06.2016 18:25:42

mtllib green_shell.mtl

#
# object polygon0
#

v  0.0000 0.4429 0.5589
v  0.0000 0.2847 0.6831
v  0.4665 0.2836 0.4848
v  -0.4665 0.2836 0.4848
v  -0.3832 0.4427 0.3970
v  -0.5367 0.4427 0.0062
v  -0.3855 0.5662 0.0062
v  -0.3832 0.4427 -0.3847
v  -0.2733 0.5662 -0.2702
v  0.0000 0.5662 -0.3847
v  0.0000 0.6442 -0.1962
v  0.2733 0.5662 -0.2702
v  0.1426 0.6442 -0.1369
v  0.2016 0.6442 0.0062
v  0.0000 0.6708 0.0062
v  0.1426 0.6442 0.1492
v  0.0000 0.6442 0.2085
v  0.2733 0.5662 0.2825
v  0.0000 0.5662 0.3970
v  0.3832 0.4427 0.3970
v  0.3832 -0.5101 0.3970
v  0.5367 -0.5251 0.0062
v  0.4665 -0.4114 0.4848
v  0.3855 -0.5727 0.0062
v  0.2733 -0.5614 0.2825
v  0.0000 -0.5799 0.0062
v  0.0000 -0.5448 0.3970
v  -0.2733 -0.5614 0.2825
v  -0.3832 -0.5101 0.3970
v  -0.3855 -0.5727 0.0062
v  -0.5367 -0.5251 0.0062
v  -0.3832 -0.5101 -0.3847
v  -0.4665 -0.4114 -0.4725
v  -0.6457 0.2830 0.0062
v  -0.4665 0.2836 -0.4725
v  0.0000 0.4429 -0.5466
v  0.3832 0.4427 -0.3847
v  0.3855 0.5662 0.0062
v  -0.2733 0.5662 0.2825
v  -0.1426 0.6442 0.1492
v  -0.2016 0.6442 0.0062
v  -0.1426 0.6442 -0.1369
v  -0.5849 -0.0899 -0.4084
v  -0.4025 -0.0855 -0.6038
v  -0.5665 -0.2685 -0.3943
v  -0.5188 0.1012 -0.5277
v  -0.7093 0.0992 0.0062
v  -0.5188 0.1012 0.5400
v  0.0000 0.2847 -0.6708
v  0.4665 0.2836 -0.4725
v  0.5367 0.4427 0.0062
v  0.0973 -0.2476 0.7197
v  0.3891 -0.2605 0.5953
v  0.1006 -0.0785 0.7449
v  0.0000 -0.3820 0.6831
v  0.0000 -0.4832 0.5589
v  -0.4665 -0.4114 0.4848
v  0.5665 -0.2685 0.4066
v  0.6457 -0.4250 0.0062
v  0.4665 -0.4114 -0.4725
v  0.3832 -0.5101 -0.3847
v  0.0000 -0.5448 -0.3847
v  -0.2733 -0.5614 -0.2702
v  0.2733 -0.5614 -0.2702
v  0.0973 -0.2476 -0.7074
v  0.3891 -0.2605 -0.5830
v  0.1006 -0.0785 -0.7326
v  -0.0973 -0.2476 -0.7074
v  -0.1006 -0.0785 -0.7326
v  -0.3891 -0.2605 -0.5830
v  -0.7093 -0.2755 0.0062
v  -0.7296 -0.0935 0.0062
v  -0.5849 -0.0899 0.4207
v  0.7093 -0.2755 0.0062
v  0.5665 -0.2685 -0.3943
v  -0.5665 -0.2685 0.4066
v  -0.3891 -0.2605 0.5953
v  -0.6457 -0.4250 0.0062
v  0.0000 -0.3820 -0.6708
v  0.0000 0.1059 -0.7489
v  0.4025 -0.0855 -0.6038
v  0.5188 0.1012 -0.5277
v  0.5849 -0.0899 0.4207
v  0.4025 -0.0855 0.6161
v  0.5188 0.1012 0.5400
v  0.7093 0.0992 0.0062
v  0.6457 0.2830 0.0062
v  -0.0973 -0.2476 0.7197
v  -0.1006 -0.0785 0.7449
v  0.0000 0.1059 0.7612
v  -0.4025 -0.0855 0.6161
v  0.5849 -0.0899 -0.4084
v  0.7296 -0.0935 0.0062
v  0.0000 -0.4832 -0.5466
# 94 vertices

vn 0.0000 0.6809 0.7324
vn 0.0000 0.4742 0.8804
vn 0.6123 0.5327 0.5843
vn -0.6123 0.5327 0.5843
vn -0.4879 0.7332 0.4738
vn -0.7595 0.6505 -0.0000
vn -0.5512 0.8343 -0.0000
vn -0.4879 0.7332 -0.4738
vn -0.3307 0.8856 -0.3261
vn 0.0000 0.8444 -0.5357
vn 0.0000 0.9538 -0.3005
vn 0.3307 0.8856 -0.3261
vn 0.1841 0.9657 -0.1831
vn 0.3047 0.9524 -0.0000
vn 0.0000 1.0000 -0.0000
vn 0.1841 0.9657 0.1831
vn 0.0000 0.9538 0.3005
vn 0.3307 0.8856 0.3261
vn 0.0000 0.8444 0.5357
vn 0.4879 0.7332 0.4738
vn 0.2704 -0.9054 0.3272
vn 0.5433 -0.8395 -0.0000
vn 0.5302 -0.5960 0.6031
vn 0.2024 -0.9793 -0.0000
vn 0.0919 -0.9829 0.1594
vn 0.0000 -1.0000 -0.0000
vn 0.0000 -0.9647 0.2634
vn -0.0919 -0.9829 0.1594
vn -0.2704 -0.9054 0.3272
vn -0.2024 -0.9793 -0.0000
vn -0.5433 -0.8395 -0.0000
vn -0.2704 -0.9054 -0.3272
vn -0.5302 -0.5960 -0.6031
vn -0.9056 0.4241 -0.0000
vn -0.6123 0.5327 -0.5843
vn 0.0000 0.6809 -0.7324
vn 0.4879 0.7332 -0.4738
vn 0.5512 0.8343 -0.0000
vn -0.3307 0.8856 0.3261
vn -0.1841 0.9657 0.1831
vn -0.3047 0.9524 -0.0000
vn -0.1841 0.9657 -0.1831
vn -0.8875 -0.0538 -0.4577
vn -0.5736 -0.0101 -0.8191
vn -0.8429 -0.2398 -0.4817
vn -0.7093 0.2291 -0.6667
vn -0.9826 0.1858 -0.0000
vn -0.7093 0.2291 0.6667
vn 0.0000 0.4742 -0.8804
vn 0.6123 0.5327 -0.5843
vn 0.7595 0.6505 -0.0000
vn 0.2140 -0.2981 0.9302
vn 0.4942 -0.2445 0.8342
vn 0.1988 -0.0630 0.9780
vn 0.0000 -0.5732 0.8194
vn 0.0000 -0.8348 0.5505
vn -0.5302 -0.5960 0.6031
vn 0.8429 -0.2398 0.4817
vn 0.8462 -0.5328 -0.0000
vn 0.5302 -0.5960 -0.6031
vn 0.2704 -0.9054 -0.3272
vn 0.0000 -0.9647 -0.2634
vn -0.0919 -0.9829 -0.1594
vn 0.0919 -0.9829 -0.1594
vn 0.2140 -0.2981 -0.9302
vn 0.4942 -0.2445 -0.8342
vn 0.1988 -0.0630 -0.9780
vn -0.2140 -0.2981 -0.9302
vn -0.1988 -0.0630 -0.9780
vn -0.4942 -0.2445 -0.8342
vn -0.9770 -0.2130 -0.0000
vn -1.0000 -0.0030 -0.0000
vn -0.8875 -0.0538 0.4577
vn 0.9770 -0.2130 -0.0000
vn 0.8429 -0.2398 -0.4817
vn -0.8429 -0.2398 0.4817
vn -0.4942 -0.2445 0.8342
vn -0.8462 -0.5328 -0.0000
vn 0.0000 -0.5732 -0.8194
vn 0.0000 0.1829 -0.9831
vn 0.5736 -0.0101 -0.8191
vn 0.7093 0.2291 -0.6667
vn 0.8875 -0.0538 0.4577
vn 0.5736 -0.0101 0.8191
vn 0.7093 0.2291 0.6667
vn 0.9826 0.1858 -0.0000
vn 0.9056 0.4241 -0.0000
vn -0.2140 -0.2981 0.9302
vn -0.1988 -0.0630 0.9780
vn 0.0000 0.1829 0.9831
vn -0.5736 -0.0101 0.8191
vn 0.8875 -0.0538 -0.4577
vn 1.0000 -0.0030 -0.0000
vn 0.0000 -0.8348 -0.5505
# 94 vertex normals

vt 0.2500 0.9202 0.0000
vt 0.2500 0.9585 0.0000
vt 0.3953 0.8974 0.0000
vt 0.1047 0.8974 0.0000
vt 0.1306 0.8704 0.0000
vt 0.0828 0.7500 0.0000
vt 0.1299 0.7500 0.0000
vt 0.1306 0.6296 0.0000
vt 0.1649 0.6649 0.0000
vt 0.2500 0.6296 0.0000
vt 0.2500 0.6877 0.0000
vt 0.3351 0.6649 0.0000
vt 0.2944 0.7059 0.0000
vt 0.3128 0.7500 0.0000
vt 0.2500 0.7500 0.0000
vt 0.2944 0.7941 0.0000
vt 0.2500 0.8123 0.0000
vt 0.3351 0.8351 0.0000
vt 0.2500 0.8704 0.0000
vt 0.3694 0.8704 0.0000
vt 0.5849 0.2898 0.0000
vt 0.7486 0.2813 0.0000
vt 0.5487 0.3462 0.0000
vt 0.7486 0.2541 0.0000
vt 0.6322 0.2606 0.0000
vt 0.7486 0.2520 0.0000
vt 0.5849 0.2700 0.0000
vt 0.5858 0.2898 0.0000
vt 0.5495 0.3462 0.0000
vt 0.0488 0.7500 0.0000
vt 0.1047 0.6026 0.0000
vt 0.2500 0.5798 0.0000
vt 0.3694 0.6296 0.0000
vt 0.3701 0.7500 0.0000
vt 0.1649 0.8351 0.0000
vt 0.2056 0.7941 0.0000
vt 0.1872 0.7500 0.0000
vt 0.2056 0.7059 0.0000
vt 0.4019 0.7337 0.0000
vt 0.3428 0.7351 0.0000
vt 0.4021 0.6766 0.0000
vt 0.3727 0.7948 0.0000
vt 0.5000 0.7942 0.0000
vt 0.5000 0.8530 0.0000
vt 0.6273 0.7948 0.0000
vt 0.6271 0.8532 0.0000
vt 0.7500 0.8535 0.0000
vt 0.2500 0.5415 0.0000
vt 0.3953 0.6026 0.0000
vt 0.4172 0.7500 0.0000
vt 0.3241 0.3796 0.0000
vt 0.4947 0.3649 0.0000
vt 0.3384 0.4954 0.0000
vt 0.4947 0.1925 0.0000
vt 0.2500 0.2261 0.0000
vt 0.2500 0.1105 0.0000
vt 0.0077 0.1925 0.0000
vt 0.0077 0.0797 0.0000
vt 0.5810 0.4278 0.0000
vt 0.5030 0.4324 0.0000
vt 0.7486 0.3384 0.0000
vt 0.5858 0.2700 0.0000
vt 0.6331 0.2606 0.0000
vt 0.1759 0.3796 0.0000
vt 0.1616 0.4954 0.0000
vt 0.0077 0.3649 0.0000
vt 0.5000 0.6743 0.0000
vt 0.5000 0.7326 0.0000
vt 0.5981 0.7337 0.0000
vt 0.7486 0.4238 0.0000
vt 0.5819 0.4278 0.0000
vt 0.5039 0.4324 0.0000
vt 0.2500 0.7963 0.0000
vt 0.1572 0.7351 0.0000
vt 0.2285 0.7374 0.0000
vt 0.1273 0.7948 0.0000
vt 0.2500 0.8535 0.0000
vt 0.1271 0.8532 0.0000
vt 0.9019 0.7337 0.0000
vt 0.8428 0.7351 0.0000
vt 0.9021 0.6766 0.0000
vt 0.8727 0.7948 0.0000
vt 0.9955 0.7942 0.0000
vt 0.9955 0.8530 0.0000
vt 0.4947 0.0797 0.0000
vt 0.2500 0.0401 0.0000
vt 0.7500 0.7963 0.0000
vt 0.7715 0.7374 0.0000
vt 0.7285 0.7374 0.0000
vt 0.6572 0.7351 0.0000
vt 0.3729 0.8532 0.0000
vt 0.0981 0.7337 0.0000
vt 0.0979 0.6766 0.0000
vt 0.0045 0.6743 0.0000
vt 0.0045 0.7326 0.0000
vt 0.0045 0.7942 0.0000
vt 0.0045 0.8530 0.0000
vt 0.9955 0.6743 0.0000
vt 0.9955 0.7326 0.0000
vt 0.8729 0.8532 0.0000
vt 0.4512 0.7500 0.0000
vt 0.2715 0.7374 0.0000
vt 0.5979 0.6766 0.0000
# 103 texture coords

g polygon0
usemtl _ItmGreenShellmat1
s 1
f 1/1/1 2/2/2 3/3/3 
f 1/1/1 4/4/4 2/2/2 
f 5/5/5 4/4/4 1/1/1 
f 5/5/5 6/6/6 4/4/4 
f 7/7/7 6/6/6 5/5/5 
f 7/7/7 8/8/8 6/6/6 
f 9/9/9 8/8/8 7/7/7 
f 9/9/9 10/10/10 8/8/8 
f 11/11/11 10/10/10 9/9/9 
f 11/11/11 12/12/12 10/10/10 
f 13/13/13 12/12/12 11/11/11 
f 13/13/13 14/14/14 12/12/12 
f 15/15/15 14/14/14 13/13/13 
f 15/15/15 16/16/16 14/14/14 
f 17/17/17 16/16/16 15/15/15 
f 17/17/17 18/18/18 16/16/16 
f 19/19/19 18/18/18 17/17/17 
f 19/19/19 20/20/20 18/18/18 
f 1/1/1 20/20/20 19/19/19 
f 1/1/1 3/3/3 20/20/20 
f 21/21/21 22/22/22 23/23/23 
f 21/21/21 24/24/24 22/22/22 
f 25/25/25 24/24/24 21/21/21 
f 25/25/25 26/26/26 24/24/24 
f 27/27/27 26/26/26 25/25/25 
f 27/27/27 28/25/28 26/26/26 
f 29/21/29 28/25/28 27/27/27 
f 29/21/29 30/24/30 28/25/28 
f 31/22/31 30/24/30 29/21/29 
f 31/22/31 32/28/32 30/24/30 
f 33/29/33 32/28/32 31/22/31 
f 6/6/6 34/30/34 4/4/4 
f 6/6/6 35/31/35 34/30/34 
f 8/8/8 35/31/35 6/6/6 
f 8/8/8 36/32/36 35/31/35 
f 10/10/10 36/32/36 8/8/8 
f 10/10/10 37/33/37 36/32/36 
f 12/12/12 37/33/37 10/10/10 
f 12/12/12 38/34/38 37/33/37 
f 14/14/14 38/34/38 12/12/12 
f 14/14/14 18/18/18 38/34/38 
f 16/16/16 18/18/18 14/14/14 
f 19/19/19 5/5/5 1/1/1 
f 19/19/19 39/35/39 5/5/5 
f 17/17/17 39/35/39 19/19/19 
f 17/17/17 40/36/40 39/35/39 
f 15/15/15 40/36/40 17/17/17 
f 15/15/15 41/37/41 40/36/40 
f 42/38/42 41/37/41 15/15/15 
f 42/38/42 9/9/9 41/37/41 
f 11/11/11 9/9/9 42/38/42 
f 43/39/43 44/40/44 45/41/45 
f 43/39/43 46/42/46 44/40/44 
f 47/43/47 46/42/46 43/39/43 
f 47/43/47 34/44/34 46/42/46 
f 48/45/48 34/44/34 47/43/47 
f 48/45/48 4/46/4 34/44/34 
f 2/47/2 4/46/4 48/45/48 
f 36/32/36 49/48/49 35/31/35 
f 36/32/36 50/49/50 49/48/49 
f 37/33/37 50/49/50 36/32/36 
f 37/33/37 51/50/51 50/49/50 
f 38/34/38 51/50/51 37/33/37 
f 38/34/38 20/20/20 51/50/51 
f 18/18/18 20/20/20 38/34/38 
f 52/51/52 53/52/53 54/53/54 
f 52/51/52 23/54/23 53/52/53 
f 55/55/55 23/54/23 52/51/52 
f 55/55/55 56/56/56 23/54/23 
f 57/57/57 56/56/56 55/55/55 
f 57/57/57 29/58/29 56/56/56 
f 23/23/23 58/59/58 53/60/53 
f 23/23/23 59/61/59 58/59/58 
f 22/22/22 59/61/59 23/23/23 
f 22/22/22 60/29/60 59/61/59 
f 61/28/61 60/29/60 22/22/22 
f 62/62/62 26/26/26 63/63/63 
f 62/62/62 64/63/64 26/26/26 
f 61/28/61 64/63/64 62/62/62 
f 61/28/61 24/24/24 64/63/64 
f 22/22/22 24/24/24 61/28/61 
f 65/51/65 66/52/66 60/54/60 
f 65/51/65 67/53/67 66/52/66 
f 68/64/68 67/53/67 65/51/65 
f 68/64/68 69/65/69 67/53/67 
f 70/66/70 69/65/69 68/64/68 
f 71/67/71 43/39/43 45/41/45 
f 71/67/71 72/68/72 43/39/43 
f 73/69/73 72/68/72 71/67/71 
f 73/69/73 47/43/47 72/68/72 
f 48/45/48 47/43/47 73/69/73 
f 59/61/59 74/70/74 58/59/58 
f 59/61/59 75/71/75 74/70/74 
f 60/29/60 75/71/75 59/61/59 
f 60/29/60 66/72/66 75/71/75 
f 76/59/76 57/23/57 77/60/77 
f 76/59/76 78/61/78 57/23/57 
f 71/70/71 78/61/78 76/59/76 
f 71/70/71 45/71/45 78/61/78 
f 30/24/30 26/26/26 28/25/28 
f 30/24/30 63/63/63 26/26/26 
f 32/28/32 63/63/63 30/24/30 
f 32/28/32 62/62/62 63/63/63 
f 68/64/68 33/57/33 70/66/70 
f 68/64/68 79/55/79 33/57/33 
f 65/51/65 79/55/79 68/64/68 
f 65/51/65 60/54/60 79/55/79 
f 80/73/80 81/74/81 67/75/67 
f 80/73/80 82/76/82 81/74/81 
f 49/77/49 82/76/82 80/73/80 
f 49/77/49 50/78/50 82/76/82 
f 83/79/83 84/80/84 58/81/58 
f 83/79/83 85/82/85 84/80/84 
f 86/83/86 85/82/85 83/79/83 
f 86/83/86 87/84/87 85/82/85 
f 56/56/56 21/85/21 23/54/23 
f 56/56/56 27/86/27 21/85/21 
f 29/58/29 27/86/27 56/56/56 
f 88/64/88 57/57/57 55/55/55 
f 88/64/88 77/66/77 57/57/57 
f 89/65/89 77/66/77 88/64/88 
f 90/87/90 54/88/54 84/80/84 
f 90/87/90 89/89/89 54/88/54 
f 91/90/91 89/89/89 90/87/90 
f 46/42/46 80/73/80 44/40/44 
f 46/42/46 49/77/49 80/73/80 
f 35/91/35 49/77/49 46/42/46 
f 92/92/92 75/93/75 81/74/81 
f 92/92/92 74/94/74 75/93/75 
f 93/95/93 74/94/74 92/92/92 
f 92/92/92 86/96/86 93/95/93 
f 92/92/92 82/76/82 86/96/86 
f 81/74/81 82/76/82 92/92/92 
f 41/37/41 39/35/39 40/36/40 
f 41/37/41 7/7/7 39/35/39 
f 9/9/9 7/7/7 41/37/41 
f 94/56/94 60/54/60 61/85/61 
f 94/56/94 79/55/79 60/54/60 
f 33/57/33 79/55/79 94/56/94 
f 94/56/94 32/58/32 33/57/33 
f 94/56/94 62/86/62 32/58/32 
f 61/85/61 62/86/62 94/56/94 
f 87/97/87 82/76/82 50/78/50 
f 87/97/87 86/96/86 82/76/82 
f 52/51/52 88/64/88 55/55/55 
f 52/51/52 54/53/54 88/64/88 
f 74/98/74 83/79/83 58/81/58 
f 74/98/74 93/99/93 83/79/83 
f 3/100/3 85/82/85 87/84/87 
f 3/100/3 2/47/2 85/82/85 
f 57/23/57 31/22/31 29/21/29 
f 57/23/57 78/61/78 31/22/31 
f 85/82/85 90/87/90 84/80/84 
f 85/82/85 2/47/2 90/87/90 
f 3/3/3 51/50/51 20/20/20 
f 3/3/3 87/101/87 51/50/51 
f 78/61/78 33/29/33 31/22/31 
f 78/61/78 45/71/45 33/29/33 
f 69/102/69 80/73/80 67/75/67 
f 69/102/69 44/40/44 80/73/80 
f 15/15/15 11/11/11 42/38/42 
f 15/15/15 13/13/13 11/11/11 
f 76/103/76 73/69/73 71/67/71 
f 76/103/76 91/90/91 73/69/73 
f 91/90/91 48/45/48 73/69/73 
f 91/90/91 90/87/90 48/45/48 
f 27/27/27 25/25/25 21/21/21 
f 45/71/45 70/72/70 33/29/33 
f 26/26/26 64/63/64 24/24/24 
f 89/65/89 88/64/88 54/53/54 
f 83/79/83 93/99/93 86/83/86 
f 48/45/48 90/87/90 2/47/2 
f 46/42/46 34/44/34 35/91/35 
f 43/39/43 72/68/72 47/43/47 
f 51/50/51 87/101/87 50/49/50 
f 5/5/5 39/35/39 7/7/7 
# 0 polygons - 176 triangles

#
# object polygon1
#

v  0.2991 0.0363 -0.7017
v  0.5527 -0.0792 -0.5308
v  0.3290 0.0021 -0.8094
v  -0.5527 -0.0792 -0.5308
v  0.0000 0.0658 -0.7630
v  -0.2991 0.0363 -0.7017
v  -0.3290 0.0021 -0.8094
v  -0.6080 -0.1284 -0.6067
v  -0.7222 -0.1617 -0.2835
v  -0.7944 -0.2303 -0.3155
v  -0.7817 -0.1890 0.0062
v  -0.8598 -0.2672 0.0062
v  -0.7944 -0.2303 0.3278
v  -0.7944 -0.3078 0.3329
v  -0.6080 -0.2045 0.6329
v  -0.5527 -0.3092 0.5761
v  -0.2991 -0.1039 0.7634
v  0.2991 -0.1039 0.7634
v  0.0000 -0.0333 0.8245
v  0.3290 0.0182 0.8217
v  0.0000 0.0906 0.8760
v  0.0000 0.1537 0.8314
v  -0.3290 0.0182 0.8217
v  -0.3290 0.0857 0.7850
v  -0.6080 -0.1284 0.6190
v  -0.5527 -0.0792 0.5431
v  -0.7222 -0.1617 0.2958
v  0.7222 -0.1617 0.2958
v  0.7817 -0.1890 0.0062
v  0.7944 -0.2303 0.3278
v  0.8598 -0.2672 0.0062
v  0.7944 -0.3078 0.3329
v  0.8598 -0.3454 0.0062
v  0.7817 -0.4235 0.0062
v  0.7944 -0.3078 -0.3206
v  0.7222 -0.3947 -0.2950
v  0.5527 -0.3092 -0.5638
v  -0.5527 -0.3092 -0.5638
v  -0.2991 -0.1841 -0.7681
v  -0.6080 -0.2045 -0.6206
v  -0.3290 -0.0688 -0.8389
v  -0.7944 -0.3078 -0.3206
v  -0.8598 -0.3454 0.0062
v  -0.7817 -0.4235 0.0062
v  -0.7222 -0.3947 0.3073
v  0.5527 -0.3092 0.5761
v  0.6080 -0.2045 0.6329
v  0.6080 -0.1284 0.6190
v  0.3290 0.0857 0.7850
v  0.5527 -0.0792 0.5431
v  0.2991 0.1084 0.6743
v  -0.2991 0.1084 0.6743
v  0.0000 0.1692 0.7161
v  0.0000 0.0344 -0.8751
v  0.3290 -0.0688 -0.8389
v  0.0000 -0.0343 -0.9104
v  0.0000 -0.1498 -0.8422
v  -0.7222 -0.3947 -0.2950
v  0.7944 -0.2303 -0.3155
v  0.6080 -0.2045 -0.6206
v  0.6080 -0.1284 -0.6067
v  0.7222 -0.1617 -0.2835
v  0.2991 -0.1841 -0.7681
v  0.7222 -0.3947 0.3073
# 64 vertices

vn 0.2321 0.9712 0.0537
vn 0.3410 0.9352 0.0955
vn 0.4020 0.7952 -0.4540
vn -0.3410 0.9352 0.0955
vn 0.0000 0.9940 -0.1090
vn -0.2321 0.9712 0.0537
vn -0.4020 0.7952 -0.4540
vn -0.7157 0.5402 -0.4427
vn -0.4052 0.9141 0.0162
vn -0.8611 0.4268 -0.2764
vn -0.4915 0.8709 -0.0000
vn -0.9655 0.2602 -0.0000
vn -0.8611 0.4268 0.2764
vn -0.8354 -0.3952 0.3820
vn -0.6115 -0.2484 0.7513
vn -0.2792 -0.7366 0.6159
vn -0.0936 -0.5605 0.8228
vn 0.0936 -0.5605 0.8228
vn 0.0000 -0.4661 0.8847
vn 0.3464 0.0378 0.9373
vn 0.0000 0.1015 0.9948
vn 0.0000 0.7461 0.6659
vn -0.3464 0.0378 0.9373
vn -0.4744 0.8107 0.3431
vn -0.7330 0.5398 0.4138
vn -0.4053 0.8876 -0.2190
vn -0.4052 0.9141 -0.0162
vn 0.4052 0.9141 -0.0162
vn 0.4915 0.8709 -0.0000
vn 0.8611 0.4268 0.2764
vn 0.9655 0.2602 -0.0000
vn 0.8354 -0.3952 0.3820
vn 0.9242 -0.3818 -0.0000
vn 0.5167 -0.8560 0.0170
vn 0.8354 -0.3952 -0.3820
vn 0.3490 -0.8826 -0.3149
vn 0.3057 -0.7639 -0.5684
vn -0.3057 -0.7639 -0.5684
vn -0.1644 -0.7129 -0.6818
vn -0.6549 -0.2691 -0.7062
vn -0.3834 -0.0576 -0.9218
vn -0.8354 -0.3952 -0.3820
vn -0.9242 -0.3818 -0.0000
vn -0.5167 -0.8560 0.0170
vn -0.4619 -0.8189 0.3408
vn 0.2792 -0.7366 0.6159
vn 0.6115 -0.2484 0.7513
vn 0.7330 0.5398 0.4138
vn 0.4744 0.8107 0.3431
vn 0.4053 0.8876 -0.2190
vn 0.2409 0.8626 -0.4448
vn -0.2409 0.8626 -0.4448
vn 0.0000 0.9980 -0.0640
vn 0.0000 0.6570 -0.7539
vn 0.3834 -0.0576 -0.9218
vn 0.0000 -0.0348 -0.9994
vn 0.0000 -0.6220 -0.7830
vn -0.3490 -0.8826 -0.3149
vn 0.8611 0.4268 -0.2764
vn 0.6549 -0.2691 -0.7062
vn 0.7157 0.5402 -0.4427
vn 0.4052 0.9141 0.0162
vn 0.1644 -0.7129 -0.6818
vn 0.4619 -0.8189 0.3408
# 64 vertex normals

vt 0.6831 0.5483 0.0000
vt 0.8383 0.5987 0.0000
vt 0.7014 0.5166 0.0000
vt 0.1617 0.5987 0.0000
vt 0.5000 0.5303 0.0000
vt 0.3169 0.5483 0.0000
vt 0.2986 0.5166 0.0000
vt 0.1278 0.5763 0.0000
vt 0.0580 0.6715 0.0000
vt 0.0137 0.6621 0.0000
vt 0.0215 0.7569 0.0000
vt -0.0263 0.7569 0.0000
vt 0.0137 0.8517 0.0000
vt 0.0137 0.8531 0.0000
vt 0.1278 0.9415 0.0000
vt 0.1617 0.9248 0.0000
vt 0.3169 0.9800 0.0000
vt 0.6831 0.9800 0.0000
vt 0.5000 0.9980 0.0000
vt 0.7014 0.9972 0.0000
vt 0.5000 1.0132 0.0000
vt 0.5000 1.0000 0.0000
vt 0.2986 0.9972 0.0000
vt 0.2986 0.9863 0.0000
vt 0.1278 0.9374 0.0000
vt 0.1617 0.9151 0.0000
vt 0.0580 0.8422 0.0000
vt 0.9420 0.8422 0.0000
vt 0.9785 0.7569 0.0000
vt 0.9863 0.8517 0.0000
vt 1.0263 0.7569 0.0000
vt 0.9863 0.8531 0.0000
vt 0.9863 0.6606 0.0000
vt 0.9420 0.6682 0.0000
vt 0.8383 0.5890 0.0000
vt 0.1617 0.5890 0.0000
vt 0.3169 0.5288 0.0000
vt 0.1278 0.5722 0.0000
vt 0.2986 0.5079 0.0000
vt 0.0137 0.6606 0.0000
vt 0.0580 0.8456 0.0000
vt 0.8383 0.9248 0.0000
vt 0.8722 0.9415 0.0000
vt 0.8722 0.9374 0.0000
vt 0.7014 0.9863 0.0000
vt 0.8383 0.9151 0.0000
vt 0.6831 0.9538 0.0000
vt 0.3169 0.9538 0.0000
vt 0.5000 0.9661 0.0000
vt 0.5000 0.4972 0.0000
vt 0.7014 0.5079 0.0000
vt 0.5000 0.4868 0.0000
vt 0.5000 0.5069 0.0000
vt 0.0580 0.6682 0.0000
vt 0.9863 0.6621 0.0000
vt 0.8722 0.5722 0.0000
vt 0.8722 0.5763 0.0000
vt 0.9420 0.6715 0.0000
vt 0.6831 0.5288 0.0000
vt 0.9420 0.8456 0.0000
# 60 texture coords

g polygon1
usemtl _ItmGreenShellmat2
s 1
f 95/104/95 96/105/96 97/106/97 
f 95/104/95 98/107/98 96/105/96 
f 99/108/99 98/107/98 95/104/95 
f 99/108/99 100/109/100 98/107/98 
f 101/110/101 100/109/100 99/108/99 
f 101/110/101 98/107/98 100/109/100 
f 102/111/102 98/107/98 101/110/101 
f 102/111/102 103/112/103 98/107/98 
f 104/113/104 103/112/103 102/111/102 
f 104/113/104 105/114/105 103/112/103 
f 106/115/106 105/114/105 104/113/104 
f 106/115/106 107/116/107 105/114/105 
f 108/117/108 107/116/107 106/115/106 
f 108/117/108 109/118/109 107/116/107 
f 110/119/110 109/118/109 108/117/108 
f 110/119/110 111/120/111 109/118/109 
f 112/121/112 111/120/111 110/119/110 
f 112/121/112 113/122/113 111/120/111 
f 114/123/114 113/122/113 112/121/112 
f 114/123/114 115/124/115 113/122/113 
f 116/125/116 115/124/115 114/123/114 
f 116/125/116 117/126/117 115/124/115 
f 118/127/118 117/126/117 116/125/116 
f 118/127/118 119/128/119 117/126/117 
f 120/129/120 119/128/119 118/127/118 
f 120/129/120 121/130/121 119/128/119 
f 122/131/122 121/130/121 120/129/120 
f 122/131/122 123/132/123 121/130/121 
f 124/133/124 123/132/123 122/131/122 
f 124/133/124 125/134/125 123/132/123 
f 126/135/126 125/134/125 124/133/124 
f 126/135/126 127/134/127 125/134/125 
f 128/132/128 127/134/127 126/135/126 
f 128/132/128 129/136/129 127/134/127 
f 130/137/130 129/136/129 128/132/128 
f 130/137/130 131/138/131 129/136/129 
f 132/139/132 131/138/131 130/137/130 
f 132/139/132 133/140/133 131/138/131 
f 134/141/134 133/140/133 132/139/132 
f 134/141/134 135/142/135 133/140/133 
f 102/111/102 135/142/135 134/141/134 
f 102/111/102 101/110/101 135/142/135 
f 136/143/136 106/115/106 104/113/104 
f 136/143/136 137/115/137 106/115/106 
f 138/114/138 137/115/137 136/143/136 
f 138/114/138 108/117/108 137/115/137 
f 139/144/139 108/117/108 138/114/138 
f 139/144/139 110/119/110 108/117/108 
f 140/145/140 110/119/110 139/144/139 
f 140/145/140 112/121/112 110/119/110 
f 141/146/141 112/121/112 140/145/140 
f 141/146/141 114/123/114 112/121/112 
f 142/147/142 114/123/114 141/146/141 
f 142/147/142 143/148/143 114/123/114 
f 144/149/144 143/148/143 142/147/142 
f 144/149/144 145/150/145 143/148/143 
f 146/151/146 145/150/145 144/149/144 
f 146/151/146 147/152/147 145/150/145 
f 118/127/118 147/152/147 146/151/146 
f 118/127/118 116/125/116 147/152/147 
f 97/106/97 99/108/99 95/104/95 
f 97/106/97 148/153/148 99/108/99 
f 149/154/149 148/153/148 97/106/97 
f 149/154/149 150/155/150 148/153/148 
f 151/156/151 150/155/150 149/154/149 
f 151/156/151 135/142/135 150/155/150 
f 133/140/133 135/142/135 151/156/151 
f 134/141/134 104/113/104 102/111/102 
f 134/141/134 136/143/136 104/113/104 
f 132/139/132 136/143/136 134/141/134 
f 132/139/132 152/157/152 136/143/136 
f 130/137/130 152/157/152 132/139/132 
f 130/137/130 128/132/128 152/157/152 
f 129/136/129 125/134/125 127/134/127 
f 129/136/129 153/158/153 125/134/125 
f 154/159/154 153/158/153 129/136/129 
f 154/159/154 155/160/155 153/158/153 
f 149/154/149 155/160/155 154/159/154 
f 149/154/149 97/106/97 155/160/155 
f 119/128/119 109/118/109 117/126/117 
f 119/128/119 107/116/107 109/118/109 
f 121/130/121 107/116/107 119/128/119 
f 121/130/121 105/114/105 107/116/107 
f 123/132/123 105/114/105 121/130/121 
f 123/132/123 156/161/156 105/114/105 
f 153/158/153 123/132/123 125/134/125 
f 153/158/153 156/161/156 123/132/123 
f 155/160/155 156/161/156 153/158/153 
f 155/160/155 96/105/96 156/161/156 
f 97/106/97 96/105/96 155/160/155 
f 131/138/131 154/159/154 129/136/129 
f 131/138/131 157/162/157 154/159/154 
f 133/140/133 157/162/157 131/138/131 
f 133/140/133 151/156/151 157/162/157 
f 148/153/148 101/110/101 99/108/99 
f 148/153/148 135/142/135 101/110/101 
f 150/155/150 135/142/135 148/153/148 
f 117/126/117 113/122/113 115/124/115 
f 117/126/117 111/120/111 113/122/113 
f 109/118/109 111/120/111 117/126/117 
f 103/112/103 96/105/96 98/107/98 
f 103/112/103 156/161/156 96/105/96 
f 105/114/105 156/161/156 103/112/103 
f 158/163/158 128/132/128 126/135/126 
f 158/163/158 140/145/140 128/132/128 
f 126/135/126 140/145/140 158/163/158 
f 146/151/146 120/129/120 118/127/118 
f 146/151/146 144/149/144 120/129/120 
f 152/157/152 138/114/138 136/143/136 
f 152/157/152 128/132/128 138/114/138 
f 147/152/147 143/148/143 145/150/145 
f 147/152/147 116/125/116 143/148/143 
f 149/154/149 157/162/157 151/156/151 
f 149/154/149 154/159/154 157/162/157 
f 144/149/144 122/131/122 120/129/120 
f 144/149/144 142/147/142 122/131/122 
f 142/147/142 124/133/124 122/131/122 
f 142/147/142 141/146/141 124/133/124 
f 141/146/141 126/135/126 124/133/124 
f 141/146/141 140/145/140 126/135/126 
f 138/114/138 140/145/140 139/144/139 
f 138/114/138 128/132/128 140/145/140 
f 106/115/106 137/115/137 108/117/108 
f 114/123/114 143/148/143 116/125/116 
# 0 polygons - 124 triangles

